<svg width="34" height="39" viewBox="0 0 34 39" fill="none" xmlns="http://www.w3.org/2000/svg">
<rect width="34" height="39" fill="white"/>
<path fill-rule="evenodd" clip-rule="evenodd" d="M26.2456 9.49716C26.2666 9.46821 26.2878 9.4389 26.3092 9.40929L26.3137 9.40314C26.2907 9.43484 26.268 9.4662 26.2456 9.49716Z" fill="#260B72"/>
<path d="M28.2268 28.4102C28.3264 28.4805 28.8127 29.1016 29.3108 29.7988C29.6296 30.2489 30.2148 31.0686 30.8314 31.9323L30.8362 31.939C31.1815 32.4226 31.5363 32.9196 31.8596 33.3731C32.5495 34.3299 33.1925 35.23 33.5078 35.6714L33.5126 35.6782C33.6095 35.8138 33.6746 35.9049 33.6995 35.9395C33.9866 36.3496 33.928 36.7188 33.5354 36.9121C33.3479 37.0059 33.0666 37.0176 30.2541 37.0176C27.0315 37.0117 26.8967 37 26.6213 36.7539C26.5276 36.6719 25.5491 35.3008 24.8811 34.3281C24.6467 33.9824 24.7346 33.5781 25.0803 33.4141C25.3088 33.3027 25.5491 33.3379 25.7307 33.502C25.7952 33.5605 26.1057 33.9766 26.4221 34.4219C26.7327 34.8672 27.0842 35.3535 27.2014 35.5059C27.3303 35.6826 27.5358 35.7871 27.7546 35.7871H29.7092C30.9748 35.7871 32.012 35.7695 32.012 35.7402C32.012 35.7168 31.8596 35.4824 31.6721 35.2246C31.4905 34.9609 31.1565 34.4863 30.928 34.1699C30.7906 33.9711 30.6063 33.712 30.4399 33.478L30.4388 33.4763C30.336 33.3318 30.24 33.1969 30.1663 33.0918C30.018 32.8869 29.6297 32.3413 29.2016 31.7399L29.1681 31.6928L29.1579 31.6785L29.0666 31.5502L28.9466 31.3816L28.8591 31.2587C28.824 31.2094 28.789 31.1602 28.7541 31.1113C28.4665 30.7034 28.1818 30.3013 27.9561 29.9824L27.9532 29.9783C27.7297 29.6627 27.5644 29.4292 27.512 29.3535C27.342 29.125 27.3186 29.043 27.342 28.8555C27.3772 28.6035 27.5647 28.3633 27.7581 28.3281C27.9983 28.2813 28.051 28.2871 28.2268 28.4102Z" fill="#260B72"/>
<path fill-rule="evenodd" clip-rule="evenodd" d="M4.25696 0.17577C6.86439 0.169911 7.4679 0.187492 7.6261 0.251946C7.84779 0.343512 7.91093 0.387513 8.55231 1.2805C8.69073 1.47322 8.85609 1.70549 9.05579 1.98632C10.5499 4.07812 15.9405 11.6367 16.5792 12.5332C16.8897 12.9668 17.1651 13.3242 17.1944 13.3242C17.2237 13.3242 17.587 12.8496 18.003 12.2695C18.0557 12.1961 18.1223 12.1037 18.2007 11.9951C18.7418 11.246 19.8476 9.72696 20.8507 8.35546C21.1844 7.89748 21.5186 7.439 21.8311 7.01022L21.8365 7.00287L21.8391 6.99932C22.5986 5.95728 23.229 5.09252 23.4112 4.83984C23.4967 4.72206 23.6068 4.5698 23.7286 4.40142L23.7301 4.3993C23.9837 4.04873 24.2874 3.62873 24.5245 3.30468C24.6653 3.10989 24.839 2.86903 25.0185 2.62014L25.0219 2.61549C25.2895 2.2444 25.5697 1.85599 25.7726 1.57616C26.4815 0.591788 26.6808 0.363274 26.9386 0.251946C27.2315 0.128899 33.2784 0.134756 33.5186 0.257803C33.7589 0.38085 33.8702 0.568352 33.8702 0.843743C33.8702 0.857026 33.8706 0.869485 33.871 0.880842C33.8712 0.888219 33.8714 0.895315 33.8715 0.902286C33.8716 0.907518 33.8716 0.912681 33.8715 0.917841C33.8684 1.08514 33.7484 1.25027 31.9607 3.71055C31.8498 3.86313 31.7326 4.02453 31.6085 4.1953C31.3482 4.56041 30.9261 5.14226 30.4719 5.76842L30.4685 5.77321L30.4676 5.77438C30.0848 6.30211 29.6796 6.86089 29.3292 7.34765C29.0189 7.77641 28.6875 8.23487 28.3811 8.65874L28.3631 8.6836C27.9191 9.29786 27.5299 9.83636 27.337 10.1016C27.0089 10.5527 26.4054 11.3906 25.9952 11.9707C25.5851 12.5449 25.1046 13.207 24.9288 13.4473C24.753 13.6816 24.508 14 24.508 14H28.008C30.9084 14 31.2687 13.9512 31.4386 14.0332C31.6964 14.1504 31.8429 14.4609 31.7901 14.748C31.7491 14.9824 31.005 17.4844 30.5304 18.9785C30.1964 20.0391 29.3644 22.7461 29.1886 23.3496C29.1183 23.5781 29.0128 23.8359 28.9425 23.9238C28.9403 23.9266 28.9382 23.9293 28.9362 23.932C28.9341 23.9347 28.9321 23.9373 28.9301 23.9399L28.928 23.9428L28.9256 23.946L28.9212 23.9518L28.9186 23.9554C28.9163 23.9584 28.9141 23.9615 28.9119 23.9645L28.9075 23.9704C28.8881 23.9967 28.8705 24.0206 28.8505 24.0423C28.6561 24.2528 28.2338 24.2527 23.7075 24.252H23.4525C23.2621 24.252 23.0649 24.252 22.8604 24.252H17.6574C17.3913 24.252 17.1402 24.3753 16.9776 24.5859C16.5265 25.1777 15.9405 26.0098 15.9405 26.0508C15.9405 26.0801 16.005 26.1738 16.0753 26.2676C16.1644 26.3753 16.2967 26.4378 16.4365 26.4384L17.6866 26.4434C19.0812 26.4492 19.1632 26.4551 19.3214 26.5723C19.6378 26.8066 19.6729 27.2578 19.3858 27.5156C19.2804 27.6152 19.1222 27.6211 17.4229 27.6387L15.9241 27.6529C15.7 27.655 15.4859 27.5601 15.337 27.3926L15.1357 27.1443C15.1309 27.1383 15.1235 27.1348 15.1157 27.1348C15.1075 27.1348 15.0998 27.1387 15.0949 27.1454L14.1827 28.4004C12.9698 30.0762 11.0772 32.6953 9.43079 34.9746C9.1338 35.3856 8.84241 35.7964 8.60091 36.1394C8.22258 36.6769 7.60761 37 6.95035 37H4.50391C3.60538 37 2.5312 37 1.81199 37C1.36558 37 1.00398 36.6381 1.00393 36.1917V36.1917C1.00391 36.0657 1.03317 35.9412 1.09428 35.831C1.19185 35.6549 1.36279 35.3633 1.57923 35.0625C1.93079 34.5762 2.98548 33.1172 3.92884 31.8105C4.87806 30.5039 5.99134 28.9629 6.40735 28.3828C6.64439 28.0569 6.93507 27.6533 7.19936 27.2863L7.20101 27.284C7.40647 26.9987 7.59587 26.7357 7.73157 26.5488C8.04212 26.1211 8.61048 25.3301 8.9972 24.7852L9.06313 24.6933L9.11982 24.6143L9.13953 24.5868L9.25851 24.4211L9.26289 24.415L9.28074 24.3902L9.28536 24.3837C9.69062 23.8193 10.244 23.0484 10.6554 22.4707C11.4054 21.4277 11.6104 21.1055 11.5811 21.0059C11.5636 20.9355 11.2413 20.3379 10.8663 19.6758C10.2276 18.5566 8.14759 14.8242 7.64954 13.9102C7.52649 13.6816 6.9054 12.5566 6.26673 11.4082C5.62806 10.2539 5.04798 9.20507 4.98353 9.07616C4.91171 8.93252 4.76489 8.84179 4.6043 8.84179H2.8041H1.61914C1.27936 8.84179 1.00391 8.56634 1.00391 8.22655V8.22655C1.00391 7.88677 1.27936 7.61132 1.61914 7.61132H2.97962C4.10462 7.61132 5.11243 7.6289 5.2179 7.65234C5.54603 7.71679 5.80384 8.06249 6.64759 9.60937C7.09876 10.4297 7.70228 11.5254 7.99524 12.0469L8.48332 12.9308C8.50755 12.9747 8.5537 13.002 8.60382 13.002H11.9679C14.7159 13.002 15.4952 13.1758 15.378 12.9258C15.3253 12.8438 12.0499 8.24413 9.85267 5.17968C9.37332 4.50528 8.86226 3.78986 8.45419 3.21861C8.13899 2.77736 7.88524 2.42213 7.75501 2.23827C7.45032 1.81054 7.17493 1.4414 7.13978 1.42382C7.10462 1.40038 5.69251 1.3828 4.00501 1.37695H1.60863C1.27693 1.37695 1.00804 1.10806 1.00804 0.776359V0.776359C1.00804 0.444663 1.27693 0.17577 1.60863 0.17577L4.25696 0.17577ZM27.3136 1.5703C27.4173 1.44068 27.4243 1.36522 27.4243 1.36522H29.7921C29.7921 1.36522 32.1391 1.31834 32.1216 1.36522C32.0981 1.42381 31.2862 2.57811 30.6183 3.48046C30.4542 3.70312 29.921 4.42968 29.4464 5.09179C29.1498 5.50047 28.7215 6.0922 28.3104 6.6603C28.0555 7.01244 27.8069 7.3559 27.6007 7.64061C27.2307 8.14732 26.7421 8.82238 26.3317 9.38924L26.3299 9.3917L26.3255 9.39784L26.3217 9.40312L26.3172 9.40927L26.2536 9.49714C26.0967 9.71387 25.9539 9.91116 25.837 10.0723C25.4085 10.6629 23.7102 13.0847 23.1444 13.8767L23.008 14H20.008H19.008H18.508L18.3202 13.9395L18.4659 13.7461C18.5245 13.6614 18.7323 13.372 19.0475 12.9355C21.0006 10.23 27.0764 1.87302 27.3136 1.5703ZM9.20228 14.2148C9.20228 14.2617 11.7804 18.873 12.214 19.6055C12.3487 19.834 12.3722 19.8516 12.5597 19.8164C13.005 19.7461 13.421 20.0566 13.421 20.4609C13.421 20.6543 13.3565 20.7891 13.0929 21.1465C12.9874 21.293 11.9679 22.7168 10.8311 24.3105C9.68861 25.9043 8.32338 27.8086 7.79017 28.5469C7.52729 28.912 7.17996 29.3936 6.83237 29.8755L6.8261 29.8842C6.47851 30.3662 6.13118 30.8478 5.8683 31.2129C5.72278 31.415 5.54246 31.6648 5.34359 31.9404C4.82178 32.6634 4.17226 33.5634 3.68861 34.2422L2.54612 35.8674C2.54439 35.8698 2.54238 35.8721 2.54013 35.8741L2.52357 35.8887C2.5028 35.9071 2.51839 36 2.54612 36H4H5H6.82198C7.23138 36 7.5996 35.7505 7.78288 35.3844C7.97576 34.9992 8.26246 34.4819 8.62806 33.9785C8.81489 33.7212 8.99931 33.4672 9.17192 33.2294C9.65974 32.5574 10.0532 32.0153 10.1397 31.8984C10.5147 31.3887 11.4874 30.0527 12.0558 29.2617C12.7472 28.2949 13.4444 27.334 14.3058 26.1504C14.5209 25.8579 14.8152 25.4516 15.0989 25.0599L15.1017 25.0559L15.1042 25.0525C15.1291 25.0182 15.5207 24.4774 15.6769 24.2637C16.0636 23.7246 16.4444 23.2559 16.5499 23.1914C16.7257 23.0859 16.9249 23.0801 22.339 23.0801H27.7428C27.864 23.0801 27.9713 23.0016 28.008 22.8861L28.0636 22.7109C28.1222 22.5117 28.5089 21.2637 28.919 19.9453C29.0997 19.3619 29.2861 18.7626 29.4486 18.2401C29.6549 17.5768 29.8229 17.0367 29.8917 16.8105C29.9697 16.5414 30.4264 15.2624 30.508 15H27.008H24.008C22.8984 15 21.7855 15.0013 21.008 15C17.9342 14.9947 17.008 15 17.008 15C16.8984 14.953 16.6654 14.5808 16.4568 14.3191C16.413 14.2643 16.3469 14.2324 16.2768 14.2324H12.8644C10.9542 14.2324 9.34877 14.2148 9.29603 14.1973C9.2433 14.1797 9.20228 14.1855 9.20228 14.2148Z" fill="#260B72"/>
<path d="M28.002 18C28.2771 18 28.5 17.777 28.5 17.502C28.5 17.2254 28.2758 17.001 27.9993 17.0016C27.307 17.0029 25.7161 17.0041 22.1848 17.001L22.0701 17.0009C19.325 16.9972 16.9844 16.9986 15.999 16.9995C15.723 16.9997 15.5002 17.2235 15.5001 17.4995C15.5001 17.7759 15.7241 18 16.0005 18L23.2285 18H28.002Z" fill="#260B72"/>
<path d="M25.9989 21.0064C26.2754 21.0066 26.4997 20.7825 26.4997 20.506C26.4997 20.2301 26.2763 20.0063 26.0004 20.0056L23.5308 20L17.844 20C17.5677 20 17.3438 20.224 17.3438 20.5002C17.3438 20.7763 17.5675 21.0002 17.8436 21.0004L21.8443 21.0037C23.1309 21.0063 24.0764 21.0082 24.7747 21.0054L25.9989 21.0064Z" fill="#260B72"/>
<path d="M27 29C27 30.6569 25.6569 32 24 32C22.3431 32 21 30.6569 21 29C21 27.3431 22.3431 26 24 26C25.6569 26 27 27.3431 27 29Z" fill="#260B72"/>
<path d="M26 29C26 30.1046 25.1046 31 24 31C22.8954 31 22 30.1046 22 29C22 27.8954 22.8954 27 24 27C25.1046 27 26 27.8954 26 29Z" fill="white"/>
</svg>
